<svg width="92" height="116" viewBox="0 0 92 116" fill="none" xmlns="http://www.w3.org/2000/svg">
<g clip-path="url(#clip0_4_2)">
<path d="M45.2488 115.533C21.4343 115.533 1.90658 95.7102 1.90658 71.5375C1.90658 47.3647 21.4343 27.5424 45.2488 27.5424C69.0634 27.5424 88.5911 47.359 88.5911 71.5375C88.5911 95.7102 69.0634 115.533 45.2488 115.533ZM45.2488 41.0789C28.5752 41.0789 15.2409 54.6154 15.2409 71.5375C15.2409 88.4596 28.5752 101.996 45.2488 101.996C61.9167 101.996 75.2568 88.4596 75.2568 71.5375C74.7773 54.6154 61.443 41.0789 45.2488 41.0789ZM83.8247 31.4075C83.8247 31.4075 61.6985 14.4921 45.2488 14.4912C28.7992 14.4903 6.66718 31.4075 6.66718 31.4075L3.05176e-05 19.3211C3.05176e-05 19.3211 26.0321 -0.0159302 45.2488 -0.0159302C64.4655 -0.0159302 90.4976 19.3211 90.4976 19.3211L83.8247 31.4075Z" fill="black"/>
</g>
<defs>
<clipPath id="clip0_4_2">
<rect width="91.7717" height="115.303" fill="white" transform="matrix(1 0 0 -1 0 115.303)"/>
</clipPath>
</defs>
</svg>
